<svg width="16" height="16" viewBox="0 0 16 16" fill="none" xmlns="http://www.w3.org/2000/svg">
<path d="M8.00131 2.66797C6.94647 2.66797 5.91533 2.98076 5.03826 3.5668C4.1612 4.15283 3.47761 4.98579 3.07395 5.96032C2.67028 6.93486 2.56466 8.00722 2.77045 9.04178C2.97624 10.0764 3.48419 11.0267 4.23007 11.7725C4.97595 12.5184 5.92626 13.0264 6.96082 13.2322C7.99539 13.4379 9.06774 13.3323 10.0423 12.9287C11.0168 12.525 11.8498 11.8414 12.4358 10.9643C13.0218 10.0873 13.3346 9.05614 13.3346 8.0013C13.3346 6.58681 12.7727 5.23026 11.7725 4.23007C10.7723 3.22987 9.41579 2.66797 8.00131 2.66797ZM8.00131 12.4457C7.12228 12.4457 6.26299 12.1851 5.5321 11.6967C4.80122 11.2084 4.23156 10.5142 3.89517 9.70212C3.55878 8.89 3.47077 7.99637 3.64226 7.13423C3.81375 6.2721 4.23704 5.48017 4.85861 4.85861C5.48017 4.23704 6.2721 3.81375 7.13424 3.64226C7.99637 3.47077 8.89 3.55878 9.70212 3.89517C10.5142 4.23156 11.2084 4.80122 11.6967 5.5321C12.1851 6.26299 12.4458 7.12227 12.4458 8.0013C12.4458 8.58496 12.3308 9.16289 12.1074 9.70212C11.8841 10.2413 11.5567 10.7313 11.144 11.144C10.7313 11.5567 10.2413 11.8841 9.70212 12.1074C9.1629 12.3308 8.58496 12.4457 8.00131 12.4457Z" fill="#EA8F24"/>
<path d="M7.99965 8.92183C7.84642 8.92183 7.69946 8.86096 7.5911 8.7526C7.48275 8.64425 7.42188 8.49729 7.42188 8.34405V5.67739C7.42188 5.52415 7.48275 5.37719 7.5911 5.26884C7.69946 5.16048 7.84642 5.09961 7.99965 5.09961C8.15289 5.09961 8.29985 5.16048 8.4082 5.26884C8.51656 5.37719 8.57743 5.52415 8.57743 5.67739V8.34405C8.57743 8.49729 8.51656 8.64425 8.4082 8.7526C8.29985 8.86096 8.15289 8.92183 7.99965 8.92183Z" fill="#EA8F24"/>
<path d="M7.97917 10.8978C8.34736 10.8978 8.64583 10.5993 8.64583 10.2311C8.64583 9.86293 8.34736 9.56445 7.97917 9.56445C7.61098 9.56445 7.3125 9.86293 7.3125 10.2311C7.3125 10.5993 7.61098 10.8978 7.97917 10.8978Z" fill="#EA8F24"/>
</svg>
